<svg xmlns="http://www.w3.org/2000/svg" viewBox="0 0 550 48.15"><defs><style>.cls-1{fill:#1ba5ea;}</style></defs><title>Asset 20</title><g id="Layer_2" data-name="Layer 2"><g id="LOGOS"><g id="GG"><path class="cls-1" d="M42.13,24.51V44.19a53.18,53.18,0,0,1-8.7,3,34,34,0,0,1-7.83,1,29.08,29.08,0,0,1-7.88-1A24.36,24.36,0,0,1,2.88,35.4,23.68,23.68,0,0,1,0,23.87,23.18,23.18,0,0,1,7.28,7.08,24,24,0,0,1,15.59,1.8,29.19,29.19,0,0,1,25.94.07,33.5,33.5,0,0,1,33.73,1a43.9,43.9,0,0,1,8,2.79V11a43.76,43.76,0,0,0-8.31-3.55,26.83,26.83,0,0,0-7.55-1.14A18.75,18.75,0,0,0,12.4,11.39,16.82,16.82,0,0,0,7.08,24.11a16.85,16.85,0,0,0,5.25,12.62A18.32,18.32,0,0,0,25.54,41.8a22.86,22.86,0,0,0,4.78-.52,28.33,28.33,0,0,0,5-1.58v-9H26.53V24.51Z"/><path class="cls-1" d="M52.64,47.31V.8h6.58V41.33H81.37v6Z"/><path class="cls-1" d="M80.89,23.87a22.66,22.66,0,0,1,1.89-9,23.73,23.73,0,0,1,5.39-7.75,24.8,24.8,0,0,1,8-5.22,26,26,0,0,1,19,0A24.79,24.79,0,0,1,128.7,14.93a23.81,23.81,0,0,1,1.83,9.38,22.88,22.88,0,0,1-1.88,9.12,23.41,23.41,0,0,1-5.33,7.7,25.16,25.16,0,0,1-8.1,5.24,25.75,25.75,0,0,1-9.56,1.78,25.12,25.12,0,0,1-9.49-1.83,24.53,24.53,0,0,1-8-5.19,23.47,23.47,0,0,1-7.28-17.26Zm7.08.24a17.55,17.55,0,0,0,1.33,6.78,17.33,17.33,0,0,0,3.83,5.72,16.68,16.68,0,0,0,5.7,3.84,18.24,18.24,0,0,0,13.7,0,17,17,0,0,0,5.73-3.87,17.6,17.6,0,0,0,5.19-12.5,17.24,17.24,0,0,0-1.33-6.74,18.36,18.36,0,0,0-3.92-5.8,17.21,17.21,0,0,0-5.72-3.91,17.68,17.68,0,0,0-6.82-1.34A17.08,17.08,0,0,0,99,7.68a18.67,18.67,0,0,0-5.83,3.89,16.61,16.61,0,0,0-3.83,5.69A17.86,17.86,0,0,0,88,24.11Z"/><path class="cls-1" d="M138,47.31V.8h13.59q7,0,10.73,3.16t3.77,9a10.17,10.17,0,0,1-1.69,6,10.61,10.61,0,0,1-5.19,3.69A14.54,14.54,0,0,1,167,27a11.21,11.21,0,0,1,2.78,7.68,11.25,11.25,0,0,1-4.24,9.22q-4.25,3.45-11.49,3.44Zm6.58-26.56H149c3.39,0,5.9-.61,7.55-1.83A6.5,6.5,0,0,0,159,13.33c0-2.28-.64-3.94-1.94-5s-3.36-1.57-6.2-1.57h-6.35Zm0,6.08V41.26h8.84q4.86,0,7.1-1.71c1.5-1.14,2.24-2.93,2.24-5.37a6.36,6.36,0,0,0-2.5-5.57c-1.68-1.18-4.31-1.78-7.9-1.78Z"/><path class="cls-1" d="M172.6,47.31,192.75.8h4.85L218,47.31h-6.89l-6-13.69H185.33l-5.92,13.69Zm15.33-19.68h14.49l-7.35-16.76Z"/><path class="cls-1" d="M223.41,47.31V.8H230V41.33h22.15v6Z"/><path class="cls-1" d="M298.43,43.86a43.06,43.06,0,0,1-8.31,3.22,31.07,31.07,0,0,1-7.95,1.07,27.15,27.15,0,0,1-7.63-1A24.68,24.68,0,0,1,267.81,44a23.11,23.11,0,0,1-7.95-8.61A24,24,0,0,1,257,23.87a23.42,23.42,0,0,1,7.15-16.79,24,24,0,0,1,8.15-5.3A26.68,26.68,0,0,1,282.17,0a30.68,30.68,0,0,1,7.93,1.08,42.1,42.1,0,0,1,8.33,3.28V8.21a48.34,48.34,0,0,0-8.71-3.69A27.28,27.28,0,0,0,282,3.33a21.49,21.49,0,0,0-11.81,3.45A20.57,20.57,0,0,0,261.12,24,21.35,21.35,0,0,0,267,38.74a19.12,19.12,0,0,0,6.7,4.48,22,22,0,0,0,8.36,1.57,26,26,0,0,0,6.07-.77,37.92,37.92,0,0,0,6.6-2.29V29.19H285V25.94h13.47Z"/><path class="cls-1" d="M302.92,47.31,323.21.4h1.49L345,47.31h-3.92l-6.88-16.19H313.73l-6.85,16.19ZM315,28h17.85L324,6.85Z"/><path class="cls-1" d="M356.46,47.31V4.16H339.14V.8h38.63V4.16H360.45V47.31Z"/><path class="cls-1" d="M385.4,47.31V.8h25.2v3H389.12V22.24H409.9v3H389.12v19h22v3.12Z"/><path class="cls-1" d="M432.32,39.47,446.08.8h1.37l14.16,38.67L475.28.8h4L461.88,48.15h-.77l-14.3-39.1-14.16,39.1h-.73L414.13.8h4.09Z"/><path class="cls-1" d="M474.48,47.31,494.77.4h1.49l20.29,46.91h-3.93l-6.88-16.19H485.29l-6.85,16.19ZM486.59,28h17.85L495.53,6.85Z"/><path class="cls-1" d="M528.16,47.31V22.38L510.1.8h4.62l15.33,18.39L545.38.8H550L532,22.38V47.31Z"/></g></g></g></svg>